Coordinates
version=1
nRows=16
nColumns=22
inDegrees=yes

Units are S.I. units (second, meters, Newtons, ...)
If the header above contains a line with 'inDegrees', this indicates whether rotational values are in degrees (yes) or radians (no).

endheader
time	pelvis_tilt	pelvis_list	pelvis_rotation	pelvis_tx	pelvis_ty	pelvis_tz	hip_flexion_r	hip_adduction_r	hip_rotation_r	knee_angle_r	ankle_angle_r	subtalar_angle_r	hip_flexion_l	hip_adduction_l	hip_rotation_l	knee_angle_l	ankle_angle_l	subtalar_angle_l	lumbar_extension	lumbar_bending	lumbar_rotation
      4.61000000	     -7.30774890	     -1.07690900	    -54.35080596	      1.08220796	      0.82130462	      0.89771251	    -16.25125650	     -0.49504870	     21.46485987	    -18.26183194	     18.29244139	      1.32558403	     35.27917399	    -17.72716834	     -2.32868765	    -18.77571572	      1.28835489	      4.68767058	     -0.28737495	      5.30822133	     21.93241614
      4.62000000	     -7.11235843	     -0.79230853	    -54.28367806	      1.09262501	      0.82074922	      0.90199988	    -16.37048866	     -1.10892407	     21.61142633	    -18.90052434	     17.12680816	      2.08944423	     35.61668369	    -17.08900139	     -2.20850175	    -20.28729061	      0.61520220	      5.06430927	     -0.20566811	      4.81631016	     21.63416232
      4.63000000	     -6.85201060	     -0.50430469	    -54.12447812	      1.10314751	      0.82047657	      0.90613673	    -16.45455141	     -1.71919046	     21.62650871	    -19.65737446	     15.84277103	      2.79460369	     35.95761806	    -16.33474254	     -2.05363472	    -21.87568708	      0.02928941	      5.32162285	     -0.18022697	      4.26131012	     21.27910090
      4.64000000	     -6.55055720	     -0.23354351	    -53.87718340	      1.11376887	      0.82050736	      0.91015180	    -16.52166577	     -2.29604363	     21.52774897	    -20.49803060	     14.41145947	      3.34928115	     36.27687834	    -15.49913831	     -1.86941540	    -23.49485370	     -0.43082365	      5.44864427	     -0.20829650	      3.68205223	     20.89316760
      4.65000000	     -6.24499271	     -0.00347498	    -53.62531714	      1.12434626	      0.82087408	      0.91414645	    -16.52353951	     -2.80511853	     21.42891087	    -21.47868785	     12.77150385	      4.24599889	     36.51748412	    -14.68492191	     -1.74833748	    -25.07362132	     -0.63761447	      5.47567173	     -0.28524300	      3.12809960	     20.56310833
      4.66000000	     -5.94831422	      0.18111287	    -53.31251095	      1.13494880	      0.82153929	      0.91804237	    -16.47789055	     -3.22517985	     21.24787601	    -22.56223697	     10.98736780	      4.93551046	     36.68602008	    -13.86435789	     -1.61642825	    -26.57000655	     -0.67380596	      5.36254111	     -0.40128162	      2.62460152	     20.20912139
      4.67000000	     -5.68814745	      0.30183411	    -52.96265422	      1.14551543	      0.82248354	      0.92184744	    -16.36176956	     -3.52956789	     20.99797714	    -23.76623528	      9.07461676	      5.48513551	     36.76753715	    -13.08638954	     -1.47998762	    -27.95275926	     -0.53125179	      5.18180550	     -0.55166237	      2.21229754	     19.86323213
      4.68000000	     -5.48637540	      0.37766885	    -52.66094041	      1.15591163	      0.82367855	      0.92564552	    -16.11084541	     -3.72952435	     20.80285010	    -25.12126839	      7.05284860	      6.13704750	     36.73708239	    -12.41299751	     -1.41645115	    -29.16358380	     -0.14850185	      4.84990773	     -0.69800017	      1.90043511	     19.59954077
      4.69000000	     -5.34580267	      0.39286203	    -52.35464003	      1.16616791	      0.82506884	      0.92935164	    -15.74126934	     -3.81142033	     20.53580180	    -26.61326978	      4.99980893	      6.55609134	     36.62206592	    -11.82309737	     -1.35998500	    -30.22677762	      0.35184052	      4.53401858	     -0.85084320	      1.70382110	     19.34961266
      4.70000000	     -5.26495465	      0.37804719	    -52.13086976	      1.17615779	      0.82660802	      0.93301029	    -15.18411579	     -3.81963266	     20.28110584	    -28.28797336	      2.99098296	      6.91188127	     36.40730078	    -11.34962028	     -1.38914775	    -31.11453704	      1.03075974	      4.13305221	     -0.98364423	      1.60320090	     19.20526004
      4.71000000	     -5.23642827	      0.34901905	    -51.95349914	      1.18586701	      0.82824014	      0.93656747	    -14.43151473	     -3.77152901	     19.94736106	    -30.13641203	      1.08665750	      7.07408116	     36.12336457	    -10.95341682	     -1.44977649	    -31.83326740	      1.75552390	      3.78369565	     -1.08721755	      1.57582014	     19.10236895
      4.72000000	     -5.24028265	      0.32926059	    -51.85936571	      1.19523515	      0.82992238	      0.94003889	    -13.46656377	     -3.71772114	     19.55218559	    -32.15551857	     -0.62256503	      7.09812146	     35.77111829	    -10.62755341	     -1.58714843	    -32.39286861	      2.55210811	      3.42578009	     -1.15583216	      1.58664134	     19.07254321
      4.73000000	     -5.28070929	      0.33153548	    -51.82373305	      1.20426688	      0.83159245	      0.94337555	    -12.28613496	     -3.67173218	     19.04905292	    -34.31215743	     -2.08210837	      6.91711937	     35.39517505	    -10.34946191	     -1.77101571	    -32.82827903	      3.38524528	      2.97911136	     -1.17782090	      1.63118051	     19.06730845
      4.74000000	     -5.29886293	      0.41766381	    -51.87706936	      1.21290223	      0.83324450	      0.94656948	    -10.86344229	     -3.74137970	     18.44607133	    -36.60790441	     -3.21327526	      6.67524180	     34.97420423	    -10.04822947	     -2.03621564	    -33.09337234	      4.13774335	      2.68698294	     -1.14349307	      1.60762896	     19.13845992
      4.75000000	     -5.35208785	      0.54548737	    -51.95473013	      1.22121418	      0.83481145	      0.94958805	     -9.24780860	     -3.84838270	     17.71030408	    -38.94349318	     -4.00817287	      6.10220956	     34.58615808	     -9.75934597	     -2.31595473	    -33.28074077	      4.88833937	      2.23655442	     -1.04857116	      1.60072687	     19.17773722
      4.76000000	     -5.35834375	      0.75855134	    -52.08770439	      1.22918543	      0.83636343	      0.95246624	     -7.47103394	     -4.10050783	     16.90541660	    -41.27785456	     -4.43231552	      5.48326578	     34.16274034	     -9.40346750	     -2.64407860	    -33.32642906	      5.53711081	      1.86860134	     -0.90946540	      1.49742469	     19.24983112
